<mxfile host="app.diagrams.net" modified="2021-11-07T22:13:23.723Z" agent="5.0 (Macintosh; Intel Mac OS X 10_15_7) AppleWebKit/537.36 (KHTML, like Gecko) Chrome/94.0.4606.81 Safari/537.36" etag="geHnzKlftUj_5qPoXe8h" version="15.5.6" type="github">
  <diagram id="4VxyEtRRoTt1Ef8-K-HH" name="Page-1">
    <mxGraphModel dx="1931" dy="1832" grid="1" gridSize="10" guides="1" tooltips="1" connect="1" arrows="1" fold="1" page="1" pageScale="1" pageWidth="850" pageHeight="1100" math="0" shadow="0">
      <root>
        <mxCell id="0" />
        <mxCell id="1" parent="0" />
        <mxCell id="P2BTeSbuN0RBZDsDzlA9-2" value="Loyalty Program&amp;nbsp;" style="rounded=0;whiteSpace=wrap;html=1;" vertex="1" parent="1">
          <mxGeometry x="160" y="100" width="120" height="60" as="geometry" />
        </mxCell>
        <mxCell id="P2BTeSbuN0RBZDsDzlA9-5" value="" style="endArrow=none;html=1;rounded=1;entryX=0.25;entryY=1;entryDx=0;entryDy=0;strokeWidth=2;exitX=0.5;exitY=0;exitDx=0;exitDy=0;" edge="1" parent="1" source="P2BTeSbuN0RBZDsDzlA9-6" target="P2BTeSbuN0RBZDsDzlA9-2">
          <mxGeometry width="50" height="50" relative="1" as="geometry">
            <mxPoint x="220" y="320" as="sourcePoint" />
            <mxPoint x="540" y="370" as="targetPoint" />
          </mxGeometry>
        </mxCell>
        <mxCell id="P2BTeSbuN0RBZDsDzlA9-6" value="Has" style="rhombus;whiteSpace=wrap;html=1;strokeWidth=2;" vertex="1" parent="1">
          <mxGeometry x="150" y="320" width="80" height="30" as="geometry" />
        </mxCell>
        <mxCell id="P2BTeSbuN0RBZDsDzlA9-7" value="" style="endArrow=classic;html=1;rounded=1;fontSize=13;strokeWidth=2;entryX=0.5;entryY=1;entryDx=0;entryDy=0;exitX=0.5;exitY=0;exitDx=0;exitDy=0;" edge="1" parent="1" source="P2BTeSbuN0RBZDsDzlA9-8" target="P2BTeSbuN0RBZDsDzlA9-6">
          <mxGeometry width="50" height="50" relative="1" as="geometry">
            <mxPoint x="220" y="410" as="sourcePoint" />
            <mxPoint x="540" y="370" as="targetPoint" />
          </mxGeometry>
        </mxCell>
        <mxCell id="P2BTeSbuN0RBZDsDzlA9-8" value="ER_Rules" style="rounded=0;whiteSpace=wrap;html=1;fontSize=13;strokeWidth=2;" vertex="1" parent="1">
          <mxGeometry x="140" y="455" width="100" height="50" as="geometry" />
        </mxCell>
        <mxCell id="P2BTeSbuN0RBZDsDzlA9-9" value="" style="endArrow=none;html=1;rounded=1;fontSize=13;strokeWidth=1;entryX=0.25;entryY=1;entryDx=0;entryDy=0;exitX=0.5;exitY=0;exitDx=0;exitDy=0;" edge="1" parent="1" source="P2BTeSbuN0RBZDsDzlA9-10" target="P2BTeSbuN0RBZDsDzlA9-8">
          <mxGeometry width="50" height="50" relative="1" as="geometry">
            <mxPoint x="170" y="500" as="sourcePoint" />
            <mxPoint x="210" y="500" as="targetPoint" />
            <Array as="points" />
          </mxGeometry>
        </mxCell>
        <mxCell id="P2BTeSbuN0RBZDsDzlA9-10" value="RuleCode" style="ellipse;whiteSpace=wrap;html=1;fontSize=13;strokeWidth=1;" vertex="1" parent="1">
          <mxGeometry x="120" y="535" width="80" height="30" as="geometry" />
        </mxCell>
        <mxCell id="P2BTeSbuN0RBZDsDzlA9-12" value="PointsEarn" style="ellipse;whiteSpace=wrap;html=1;fontSize=13;strokeWidth=1;" vertex="1" parent="1">
          <mxGeometry x="230" y="535" width="70" height="30" as="geometry" />
        </mxCell>
        <mxCell id="P2BTeSbuN0RBZDsDzlA9-13" value="" style="endArrow=none;html=1;rounded=1;fontSize=13;strokeWidth=1;exitX=0.5;exitY=1;exitDx=0;exitDy=0;entryX=0.5;entryY=0;entryDx=0;entryDy=0;" edge="1" parent="1" source="P2BTeSbuN0RBZDsDzlA9-8" target="P2BTeSbuN0RBZDsDzlA9-12">
          <mxGeometry width="50" height="50" relative="1" as="geometry">
            <mxPoint x="490" y="420" as="sourcePoint" />
            <mxPoint x="540" y="370" as="targetPoint" />
          </mxGeometry>
        </mxCell>
        <mxCell id="P2BTeSbuN0RBZDsDzlA9-14" value="Version" style="ellipse;whiteSpace=wrap;html=1;fontSize=13;strokeWidth=1;" vertex="1" parent="1">
          <mxGeometry x="290" y="465" width="70" height="30" as="geometry" />
        </mxCell>
        <mxCell id="P2BTeSbuN0RBZDsDzlA9-15" value="" style="endArrow=none;html=1;rounded=1;fontSize=13;strokeWidth=1;exitX=1;exitY=0.5;exitDx=0;exitDy=0;entryX=0;entryY=0.5;entryDx=0;entryDy=0;" edge="1" parent="1" source="P2BTeSbuN0RBZDsDzlA9-8" target="P2BTeSbuN0RBZDsDzlA9-14">
          <mxGeometry width="50" height="50" relative="1" as="geometry">
            <mxPoint x="490" y="420" as="sourcePoint" />
            <mxPoint x="540" y="370" as="targetPoint" />
          </mxGeometry>
        </mxCell>
        <mxCell id="P2BTeSbuN0RBZDsDzlA9-16" value="References" style="rhombus;whiteSpace=wrap;html=1;fontSize=13;strokeWidth=2;" vertex="1" parent="1">
          <mxGeometry x="-120" y="460" width="80" height="40" as="geometry" />
        </mxCell>
        <mxCell id="P2BTeSbuN0RBZDsDzlA9-17" value="" style="endArrow=classic;html=1;rounded=1;fontSize=13;strokeWidth=1;entryX=1;entryY=0.5;entryDx=0;entryDy=0;exitX=0;exitY=0.5;exitDx=0;exitDy=0;" edge="1" parent="1" source="P2BTeSbuN0RBZDsDzlA9-8" target="P2BTeSbuN0RBZDsDzlA9-16">
          <mxGeometry width="50" height="50" relative="1" as="geometry">
            <mxPoint x="480" y="420" as="sourcePoint" />
            <mxPoint x="530" y="370" as="targetPoint" />
          </mxGeometry>
        </mxCell>
        <mxCell id="P2BTeSbuN0RBZDsDzlA9-18" value="Activity Type" style="rounded=0;whiteSpace=wrap;html=1;fontSize=13;strokeWidth=1;" vertex="1" parent="1">
          <mxGeometry x="-310" y="455" width="100" height="50" as="geometry" />
        </mxCell>
        <mxCell id="P2BTeSbuN0RBZDsDzlA9-19" value="" style="endArrow=none;html=1;rounded=1;fontSize=13;strokeWidth=1;entryX=1;entryY=0.5;entryDx=0;entryDy=0;exitX=0;exitY=0.5;exitDx=0;exitDy=0;" edge="1" parent="1" source="P2BTeSbuN0RBZDsDzlA9-16" target="P2BTeSbuN0RBZDsDzlA9-18">
          <mxGeometry width="50" height="50" relative="1" as="geometry">
            <mxPoint x="20" y="430" as="sourcePoint" />
            <mxPoint x="250" y="370" as="targetPoint" />
          </mxGeometry>
        </mxCell>
        <mxCell id="P2BTeSbuN0RBZDsDzlA9-20" value="ID" style="ellipse;whiteSpace=wrap;html=1;fontSize=13;strokeWidth=1;" vertex="1" parent="1">
          <mxGeometry x="-370" y="538" width="80" height="30" as="geometry" />
        </mxCell>
        <mxCell id="P2BTeSbuN0RBZDsDzlA9-21" value="Name" style="ellipse;whiteSpace=wrap;html=1;fontSize=13;strokeWidth=1;" vertex="1" parent="1">
          <mxGeometry x="-260" y="538" width="80" height="30" as="geometry" />
        </mxCell>
        <mxCell id="P2BTeSbuN0RBZDsDzlA9-22" value="" style="endArrow=none;html=1;rounded=1;fontSize=13;strokeWidth=1;entryX=0.25;entryY=1;entryDx=0;entryDy=0;exitX=0.5;exitY=0;exitDx=0;exitDy=0;" edge="1" parent="1" source="P2BTeSbuN0RBZDsDzlA9-20" target="P2BTeSbuN0RBZDsDzlA9-18">
          <mxGeometry width="50" height="50" relative="1" as="geometry">
            <mxPoint x="200" y="420" as="sourcePoint" />
            <mxPoint x="250" y="370" as="targetPoint" />
          </mxGeometry>
        </mxCell>
        <mxCell id="P2BTeSbuN0RBZDsDzlA9-23" value="" style="endArrow=none;html=1;rounded=1;fontSize=13;strokeWidth=1;entryX=0.5;entryY=1;entryDx=0;entryDy=0;exitX=0.5;exitY=0;exitDx=0;exitDy=0;" edge="1" parent="1" source="P2BTeSbuN0RBZDsDzlA9-21" target="P2BTeSbuN0RBZDsDzlA9-18">
          <mxGeometry width="50" height="50" relative="1" as="geometry">
            <mxPoint x="200" y="420" as="sourcePoint" />
            <mxPoint x="250" y="370" as="targetPoint" />
          </mxGeometry>
        </mxCell>
        <mxCell id="P2BTeSbuN0RBZDsDzlA9-26" value="Has" style="rhombus;whiteSpace=wrap;html=1;fontSize=13;strokeWidth=2;" vertex="1" parent="1">
          <mxGeometry x="370" y="320" width="90" height="30" as="geometry" />
        </mxCell>
        <mxCell id="P2BTeSbuN0RBZDsDzlA9-31" style="edgeStyle=orthogonalEdgeStyle;rounded=1;orthogonalLoop=1;jettySize=auto;html=1;exitX=0.25;exitY=0;exitDx=0;exitDy=0;entryX=0.5;entryY=1;entryDx=0;entryDy=0;fontSize=13;strokeWidth=2;" edge="1" parent="1" source="P2BTeSbuN0RBZDsDzlA9-28" target="P2BTeSbuN0RBZDsDzlA9-26">
          <mxGeometry relative="1" as="geometry" />
        </mxCell>
        <mxCell id="P2BTeSbuN0RBZDsDzlA9-43" style="edgeStyle=orthogonalEdgeStyle;rounded=1;orthogonalLoop=1;jettySize=auto;html=1;exitX=1;exitY=0.5;exitDx=0;exitDy=0;entryX=0;entryY=0.5;entryDx=0;entryDy=0;fontSize=13;strokeWidth=2;" edge="1" parent="1" source="P2BTeSbuN0RBZDsDzlA9-28" target="P2BTeSbuN0RBZDsDzlA9-42">
          <mxGeometry relative="1" as="geometry" />
        </mxCell>
        <mxCell id="P2BTeSbuN0RBZDsDzlA9-28" value="RR_Rules" style="rounded=0;whiteSpace=wrap;html=1;fontSize=13;strokeWidth=2;" vertex="1" parent="1">
          <mxGeometry x="540" y="450" width="110" height="50" as="geometry" />
        </mxCell>
        <mxCell id="P2BTeSbuN0RBZDsDzlA9-32" value="" style="endArrow=none;html=1;rounded=0;fontSize=13;strokeWidth=2;exitX=0.75;exitY=1;exitDx=0;exitDy=0;entryX=0.5;entryY=0;entryDx=0;entryDy=0;" edge="1" parent="1" source="P2BTeSbuN0RBZDsDzlA9-2" target="P2BTeSbuN0RBZDsDzlA9-26">
          <mxGeometry relative="1" as="geometry">
            <mxPoint x="530" y="390" as="sourcePoint" />
            <mxPoint x="690" y="390" as="targetPoint" />
            <Array as="points">
              <mxPoint x="250" y="290" />
              <mxPoint x="415" y="290" />
            </Array>
          </mxGeometry>
        </mxCell>
        <mxCell id="P2BTeSbuN0RBZDsDzlA9-33" value="PointReq" style="ellipse;whiteSpace=wrap;html=1;fontSize=13;strokeWidth=1;" vertex="1" parent="1">
          <mxGeometry x="440" y="538" width="70" height="25" as="geometry" />
        </mxCell>
        <mxCell id="P2BTeSbuN0RBZDsDzlA9-34" value="" style="endArrow=none;html=1;rounded=1;fontSize=13;strokeWidth=1;entryX=0;entryY=0.5;entryDx=0;entryDy=0;exitX=0.5;exitY=0;exitDx=0;exitDy=0;" edge="1" parent="1" source="P2BTeSbuN0RBZDsDzlA9-33" target="P2BTeSbuN0RBZDsDzlA9-28">
          <mxGeometry width="50" height="50" relative="1" as="geometry">
            <mxPoint x="590" y="420" as="sourcePoint" />
            <mxPoint x="640" y="370" as="targetPoint" />
          </mxGeometry>
        </mxCell>
        <mxCell id="P2BTeSbuN0RBZDsDzlA9-35" value="RR_ID" style="ellipse;whiteSpace=wrap;html=1;fontSize=13;strokeWidth=1;" vertex="1" parent="1">
          <mxGeometry x="520" y="535" width="80" height="30" as="geometry" />
        </mxCell>
        <mxCell id="P2BTeSbuN0RBZDsDzlA9-36" value="" style="endArrow=none;html=1;rounded=1;fontSize=13;strokeWidth=1;entryX=0.25;entryY=1;entryDx=0;entryDy=0;exitX=0.5;exitY=0;exitDx=0;exitDy=0;" edge="1" parent="1" source="P2BTeSbuN0RBZDsDzlA9-35" target="P2BTeSbuN0RBZDsDzlA9-28">
          <mxGeometry width="50" height="50" relative="1" as="geometry">
            <mxPoint x="590" y="420" as="sourcePoint" />
            <mxPoint x="640" y="370" as="targetPoint" />
          </mxGeometry>
        </mxCell>
        <mxCell id="P2BTeSbuN0RBZDsDzlA9-37" value="Version" style="ellipse;whiteSpace=wrap;html=1;fontSize=13;strokeWidth=1;" vertex="1" parent="1">
          <mxGeometry x="610" y="535" width="70" height="30" as="geometry" />
        </mxCell>
        <mxCell id="P2BTeSbuN0RBZDsDzlA9-38" value="" style="endArrow=none;html=1;rounded=1;fontSize=13;strokeWidth=1;entryX=0.5;entryY=0;entryDx=0;entryDy=0;exitX=0.5;exitY=1;exitDx=0;exitDy=0;" edge="1" parent="1" source="P2BTeSbuN0RBZDsDzlA9-28" target="P2BTeSbuN0RBZDsDzlA9-37">
          <mxGeometry width="50" height="50" relative="1" as="geometry">
            <mxPoint x="600" y="520" as="sourcePoint" />
            <mxPoint x="650" y="450" as="targetPoint" />
          </mxGeometry>
        </mxCell>
        <mxCell id="P2BTeSbuN0RBZDsDzlA9-39" value="RuleCode" style="ellipse;whiteSpace=wrap;html=1;fontSize=13;strokeWidth=1;" vertex="1" parent="1">
          <mxGeometry x="700" y="535" width="80" height="30" as="geometry" />
        </mxCell>
        <mxCell id="P2BTeSbuN0RBZDsDzlA9-40" value="" style="endArrow=none;html=1;rounded=1;fontSize=13;strokeWidth=1;exitX=1;exitY=0.75;exitDx=0;exitDy=0;entryX=0.5;entryY=0;entryDx=0;entryDy=0;" edge="1" parent="1" source="P2BTeSbuN0RBZDsDzlA9-28" target="P2BTeSbuN0RBZDsDzlA9-39">
          <mxGeometry width="50" height="50" relative="1" as="geometry">
            <mxPoint x="590" y="420" as="sourcePoint" />
            <mxPoint x="640" y="370" as="targetPoint" />
          </mxGeometry>
        </mxCell>
        <mxCell id="P2BTeSbuN0RBZDsDzlA9-42" value="References" style="rhombus;whiteSpace=wrap;html=1;fontSize=13;strokeWidth=2;" vertex="1" parent="1">
          <mxGeometry x="820" y="455" width="80" height="40" as="geometry" />
        </mxCell>
        <mxCell id="P2BTeSbuN0RBZDsDzlA9-44" value="Rewards" style="rounded=0;whiteSpace=wrap;html=1;fontSize=13;strokeWidth=1;" vertex="1" parent="1">
          <mxGeometry x="805" y="310" width="110" height="50" as="geometry" />
        </mxCell>
        <mxCell id="P2BTeSbuN0RBZDsDzlA9-45" value="" style="endArrow=none;html=1;rounded=1;fontSize=13;strokeWidth=1;entryX=0.5;entryY=1;entryDx=0;entryDy=0;exitX=0.5;exitY=0;exitDx=0;exitDy=0;" edge="1" parent="1" source="P2BTeSbuN0RBZDsDzlA9-42" target="P2BTeSbuN0RBZDsDzlA9-44">
          <mxGeometry width="50" height="50" relative="1" as="geometry">
            <mxPoint x="800" y="420" as="sourcePoint" />
            <mxPoint x="850" y="370" as="targetPoint" />
          </mxGeometry>
        </mxCell>
        <mxCell id="P2BTeSbuN0RBZDsDzlA9-46" value="ID" style="ellipse;whiteSpace=wrap;html=1;fontSize=13;strokeWidth=1;" vertex="1" parent="1">
          <mxGeometry x="770" y="250" width="80" height="30" as="geometry" />
        </mxCell>
        <mxCell id="P2BTeSbuN0RBZDsDzlA9-47" value="Name" style="ellipse;whiteSpace=wrap;html=1;fontSize=13;strokeWidth=1;" vertex="1" parent="1">
          <mxGeometry x="870" y="250" width="80" height="30" as="geometry" />
        </mxCell>
        <mxCell id="P2BTeSbuN0RBZDsDzlA9-48" value="" style="endArrow=none;html=1;rounded=1;fontSize=13;strokeWidth=1;entryX=0.5;entryY=1;entryDx=0;entryDy=0;exitX=0.25;exitY=0;exitDx=0;exitDy=0;" edge="1" parent="1" source="P2BTeSbuN0RBZDsDzlA9-44" target="P2BTeSbuN0RBZDsDzlA9-46">
          <mxGeometry width="50" height="50" relative="1" as="geometry">
            <mxPoint x="820" y="420" as="sourcePoint" />
            <mxPoint x="870" y="370" as="targetPoint" />
          </mxGeometry>
        </mxCell>
        <mxCell id="P2BTeSbuN0RBZDsDzlA9-49" value="" style="endArrow=none;html=1;rounded=1;fontSize=13;strokeWidth=1;entryX=0.5;entryY=1;entryDx=0;entryDy=0;exitX=0.5;exitY=0;exitDx=0;exitDy=0;" edge="1" parent="1" source="P2BTeSbuN0RBZDsDzlA9-44" target="P2BTeSbuN0RBZDsDzlA9-47">
          <mxGeometry width="50" height="50" relative="1" as="geometry">
            <mxPoint x="820" y="420" as="sourcePoint" />
            <mxPoint x="870" y="370" as="targetPoint" />
          </mxGeometry>
        </mxCell>
        <mxCell id="P2BTeSbuN0RBZDsDzlA9-53" style="edgeStyle=orthogonalEdgeStyle;rounded=1;orthogonalLoop=1;jettySize=auto;html=1;exitX=0;exitY=0.5;exitDx=0;exitDy=0;entryX=1;entryY=0.5;entryDx=0;entryDy=0;fontSize=13;strokeWidth=2;" edge="1" parent="1" source="P2BTeSbuN0RBZDsDzlA9-50" target="P2BTeSbuN0RBZDsDzlA9-51">
          <mxGeometry relative="1" as="geometry" />
        </mxCell>
        <mxCell id="P2BTeSbuN0RBZDsDzlA9-50" value="Activity History" style="rounded=0;whiteSpace=wrap;html=1;fontSize=13;strokeWidth=1;" vertex="1" parent="1">
          <mxGeometry x="1410" y="310" width="110" height="50" as="geometry" />
        </mxCell>
        <mxCell id="P2BTeSbuN0RBZDsDzlA9-51" value="Has" style="rhombus;whiteSpace=wrap;html=1;fontSize=13;strokeWidth=1;" vertex="1" parent="1">
          <mxGeometry x="1240" y="320" width="90" height="30" as="geometry" />
        </mxCell>
        <mxCell id="P2BTeSbuN0RBZDsDzlA9-52" value="" style="endArrow=none;html=1;rounded=1;fontSize=13;strokeWidth=1;exitX=1;exitY=0.5;exitDx=0;exitDy=0;entryX=0;entryY=0.5;entryDx=0;entryDy=0;" edge="1" parent="1" source="P2BTeSbuN0RBZDsDzlA9-44" target="P2BTeSbuN0RBZDsDzlA9-51">
          <mxGeometry width="50" height="50" relative="1" as="geometry">
            <mxPoint x="1260" y="200" as="sourcePoint" />
            <mxPoint x="1310" y="150" as="targetPoint" />
          </mxGeometry>
        </mxCell>
        <mxCell id="P2BTeSbuN0RBZDsDzlA9-54" value="Multiplier" style="ellipse;whiteSpace=wrap;html=1;fontSize=13;strokeWidth=1;" vertex="1" parent="1">
          <mxGeometry x="1030" y="190" width="80" height="40" as="geometry" />
        </mxCell>
        <mxCell id="P2BTeSbuN0RBZDsDzlA9-55" value="Customer ID" style="ellipse;whiteSpace=wrap;html=1;fontSize=13;strokeWidth=1;" vertex="1" parent="1">
          <mxGeometry x="1600" y="315" width="100" height="40" as="geometry" />
        </mxCell>
        <mxCell id="P2BTeSbuN0RBZDsDzlA9-56" value="Activity Record Identifier" style="ellipse;whiteSpace=wrap;html=1;fontSize=13;strokeWidth=1;" vertex="1" parent="1">
          <mxGeometry x="1465" y="245" width="110" height="40" as="geometry" />
        </mxCell>
        <mxCell id="P2BTeSbuN0RBZDsDzlA9-57" value="Date" style="ellipse;whiteSpace=wrap;html=1;fontSize=13;strokeWidth=1;" vertex="1" parent="1">
          <mxGeometry x="1350" y="245" width="100" height="40" as="geometry" />
        </mxCell>
        <mxCell id="P2BTeSbuN0RBZDsDzlA9-58" value="" style="endArrow=none;html=1;rounded=1;fontSize=13;strokeWidth=1;exitX=0.5;exitY=1;exitDx=0;exitDy=0;" edge="1" parent="1" source="P2BTeSbuN0RBZDsDzlA9-57" target="P2BTeSbuN0RBZDsDzlA9-50">
          <mxGeometry width="50" height="50" relative="1" as="geometry">
            <mxPoint x="1420" y="200" as="sourcePoint" />
            <mxPoint x="1470" y="150" as="targetPoint" />
          </mxGeometry>
        </mxCell>
        <mxCell id="P2BTeSbuN0RBZDsDzlA9-59" value="" style="endArrow=none;html=1;rounded=1;fontSize=13;strokeWidth=1;exitX=0.5;exitY=1;exitDx=0;exitDy=0;entryX=0.5;entryY=0;entryDx=0;entryDy=0;" edge="1" parent="1" source="P2BTeSbuN0RBZDsDzlA9-56" target="P2BTeSbuN0RBZDsDzlA9-50">
          <mxGeometry width="50" height="50" relative="1" as="geometry">
            <mxPoint x="1440" y="300" as="sourcePoint" />
            <mxPoint x="1470" y="140" as="targetPoint" />
          </mxGeometry>
        </mxCell>
        <mxCell id="P2BTeSbuN0RBZDsDzlA9-61" value="" style="endArrow=none;html=1;rounded=1;fontSize=13;strokeWidth=1;exitX=1;exitY=0.5;exitDx=0;exitDy=0;entryX=0;entryY=0.5;entryDx=0;entryDy=0;" edge="1" parent="1" source="P2BTeSbuN0RBZDsDzlA9-50" target="P2BTeSbuN0RBZDsDzlA9-55">
          <mxGeometry width="50" height="50" relative="1" as="geometry">
            <mxPoint x="1420" y="190" as="sourcePoint" />
            <mxPoint x="1470" y="140" as="targetPoint" />
          </mxGeometry>
        </mxCell>
        <mxCell id="P2BTeSbuN0RBZDsDzlA9-62" value="ISA" style="triangle;whiteSpace=wrap;html=1;fontSize=13;strokeWidth=1;direction=north;" vertex="1" parent="1">
          <mxGeometry x="1437.5" y="430" width="55" height="40" as="geometry" />
        </mxCell>
        <mxCell id="P2BTeSbuN0RBZDsDzlA9-63" value="" style="endArrow=none;html=1;rounded=1;fontSize=13;strokeWidth=1;exitX=0.5;exitY=1;exitDx=0;exitDy=0;entryX=1;entryY=0.5;entryDx=0;entryDy=0;" edge="1" parent="1" source="P2BTeSbuN0RBZDsDzlA9-50" target="P2BTeSbuN0RBZDsDzlA9-62">
          <mxGeometry width="50" height="50" relative="1" as="geometry">
            <mxPoint x="1420" y="260" as="sourcePoint" />
            <mxPoint x="1470" y="210" as="targetPoint" />
          </mxGeometry>
        </mxCell>
        <mxCell id="P2BTeSbuN0RBZDsDzlA9-64" value="Perchase History&amp;nbsp;" style="rounded=0;whiteSpace=wrap;html=1;fontSize=13;strokeWidth=1;" vertex="1" parent="1">
          <mxGeometry x="1330" y="515" width="80" height="35" as="geometry" />
        </mxCell>
        <mxCell id="P2BTeSbuN0RBZDsDzlA9-65" value="" style="endArrow=none;html=1;rounded=1;fontSize=13;strokeWidth=1;exitX=0.5;exitY=0;exitDx=0;exitDy=0;entryX=0;entryY=0.25;entryDx=0;entryDy=0;" edge="1" parent="1" source="P2BTeSbuN0RBZDsDzlA9-64" target="P2BTeSbuN0RBZDsDzlA9-62">
          <mxGeometry width="50" height="50" relative="1" as="geometry">
            <mxPoint x="1420" y="330" as="sourcePoint" />
            <mxPoint x="1470" y="280" as="targetPoint" />
          </mxGeometry>
        </mxCell>
        <mxCell id="P2BTeSbuN0RBZDsDzlA9-66" value="Refer History" style="rounded=0;whiteSpace=wrap;html=1;fontSize=13;strokeWidth=1;" vertex="1" parent="1">
          <mxGeometry x="1440" y="515" width="80" height="35" as="geometry" />
        </mxCell>
        <mxCell id="P2BTeSbuN0RBZDsDzlA9-67" value="Review History" style="rounded=0;whiteSpace=wrap;html=1;fontSize=13;strokeWidth=1;" vertex="1" parent="1">
          <mxGeometry x="1550" y="515" width="80" height="35" as="geometry" />
        </mxCell>
        <mxCell id="P2BTeSbuN0RBZDsDzlA9-68" value="" style="endArrow=none;html=1;rounded=1;fontSize=13;strokeWidth=1;exitX=0;exitY=0.5;exitDx=0;exitDy=0;entryX=0.5;entryY=0;entryDx=0;entryDy=0;" edge="1" parent="1" source="P2BTeSbuN0RBZDsDzlA9-62" target="P2BTeSbuN0RBZDsDzlA9-66">
          <mxGeometry width="50" height="50" relative="1" as="geometry">
            <mxPoint x="1420" y="340" as="sourcePoint" />
            <mxPoint x="1470" y="290" as="targetPoint" />
          </mxGeometry>
        </mxCell>
        <mxCell id="P2BTeSbuN0RBZDsDzlA9-69" value="" style="endArrow=none;html=1;rounded=1;fontSize=13;strokeWidth=1;exitX=0;exitY=0.75;exitDx=0;exitDy=0;entryX=0.5;entryY=0;entryDx=0;entryDy=0;" edge="1" parent="1" source="P2BTeSbuN0RBZDsDzlA9-62" target="P2BTeSbuN0RBZDsDzlA9-67">
          <mxGeometry width="50" height="50" relative="1" as="geometry">
            <mxPoint x="1420" y="340" as="sourcePoint" />
            <mxPoint x="1470" y="290" as="targetPoint" />
          </mxGeometry>
        </mxCell>
        <mxCell id="P2BTeSbuN0RBZDsDzlA9-70" value="Review Content" style="ellipse;whiteSpace=wrap;html=1;fontSize=13;strokeWidth=1;" vertex="1" parent="1">
          <mxGeometry x="1575" y="606.25" width="110" height="27.5" as="geometry" />
        </mxCell>
        <mxCell id="P2BTeSbuN0RBZDsDzlA9-71" value="Customer ID" style="ellipse;whiteSpace=wrap;html=1;fontSize=13;strokeWidth=1;" vertex="1" parent="1">
          <mxGeometry x="1450" y="601.25" width="97.5" height="32.5" as="geometry" />
        </mxCell>
        <mxCell id="P2BTeSbuN0RBZDsDzlA9-72" value="Amount" style="ellipse;whiteSpace=wrap;html=1;fontSize=13;strokeWidth=1;" vertex="1" parent="1">
          <mxGeometry x="1310" y="602.5" width="100" height="30" as="geometry" />
        </mxCell>
        <mxCell id="P2BTeSbuN0RBZDsDzlA9-73" value="" style="endArrow=none;html=1;rounded=1;fontSize=13;strokeWidth=1;exitX=0.5;exitY=1;exitDx=0;exitDy=0;entryX=0.5;entryY=0;entryDx=0;entryDy=0;" edge="1" parent="1" source="P2BTeSbuN0RBZDsDzlA9-64" target="P2BTeSbuN0RBZDsDzlA9-72">
          <mxGeometry width="50" height="50" relative="1" as="geometry">
            <mxPoint x="1420" y="340" as="sourcePoint" />
            <mxPoint x="1470" y="290" as="targetPoint" />
          </mxGeometry>
        </mxCell>
        <mxCell id="P2BTeSbuN0RBZDsDzlA9-74" value="" style="endArrow=none;html=1;rounded=1;fontSize=13;strokeWidth=1;exitX=0.5;exitY=1;exitDx=0;exitDy=0;entryX=0.5;entryY=0;entryDx=0;entryDy=0;" edge="1" parent="1" source="P2BTeSbuN0RBZDsDzlA9-66" target="P2BTeSbuN0RBZDsDzlA9-71">
          <mxGeometry width="50" height="50" relative="1" as="geometry">
            <mxPoint x="1420" y="340" as="sourcePoint" />
            <mxPoint x="1470" y="290" as="targetPoint" />
          </mxGeometry>
        </mxCell>
        <mxCell id="P2BTeSbuN0RBZDsDzlA9-75" value="" style="endArrow=none;html=1;rounded=1;fontSize=13;strokeWidth=1;exitX=0.5;exitY=1;exitDx=0;exitDy=0;entryX=0.5;entryY=0;entryDx=0;entryDy=0;" edge="1" parent="1" source="P2BTeSbuN0RBZDsDzlA9-67" target="P2BTeSbuN0RBZDsDzlA9-70">
          <mxGeometry width="50" height="50" relative="1" as="geometry">
            <mxPoint x="1420" y="340" as="sourcePoint" />
            <mxPoint x="1470" y="290" as="targetPoint" />
          </mxGeometry>
        </mxCell>
        <mxCell id="P2BTeSbuN0RBZDsDzlA9-76" value="ISA" style="triangle;whiteSpace=wrap;html=1;fontSize=13;strokeWidth=1;direction=west;" vertex="1" parent="1">
          <mxGeometry x="360" y="105" width="50" height="50" as="geometry" />
        </mxCell>
        <mxCell id="P2BTeSbuN0RBZDsDzlA9-77" value="" style="endArrow=none;html=1;rounded=1;fontSize=13;strokeWidth=1;exitX=1;exitY=0.5;exitDx=0;exitDy=0;entryX=1;entryY=0.5;entryDx=0;entryDy=0;" edge="1" parent="1" source="P2BTeSbuN0RBZDsDzlA9-2" target="P2BTeSbuN0RBZDsDzlA9-76">
          <mxGeometry width="50" height="50" relative="1" as="geometry">
            <mxPoint x="690" y="130" as="sourcePoint" />
            <mxPoint x="740" y="80" as="targetPoint" />
          </mxGeometry>
        </mxCell>
        <mxCell id="P2BTeSbuN0RBZDsDzlA9-78" value="Tiered&amp;nbsp;" style="rounded=0;whiteSpace=wrap;html=1;fontSize=13;strokeWidth=1;" vertex="1" parent="1">
          <mxGeometry x="500" y="105" width="110" height="50" as="geometry" />
        </mxCell>
        <mxCell id="P2BTeSbuN0RBZDsDzlA9-79" value="" style="endArrow=none;html=1;rounded=1;fontSize=13;strokeWidth=1;exitX=0;exitY=0.5;exitDx=0;exitDy=0;entryX=0;entryY=0.5;entryDx=0;entryDy=0;" edge="1" parent="1" source="P2BTeSbuN0RBZDsDzlA9-76" target="P2BTeSbuN0RBZDsDzlA9-78">
          <mxGeometry width="50" height="50" relative="1" as="geometry">
            <mxPoint x="570" y="160" as="sourcePoint" />
            <mxPoint x="620" y="110" as="targetPoint" />
          </mxGeometry>
        </mxCell>
        <mxCell id="P2BTeSbuN0RBZDsDzlA9-80" value="Cotains" style="rhombus;whiteSpace=wrap;html=1;fontSize=13;strokeWidth=1;" vertex="1" parent="1">
          <mxGeometry x="720" y="110" width="110" height="40" as="geometry" />
        </mxCell>
        <mxCell id="P2BTeSbuN0RBZDsDzlA9-81" value="" style="endArrow=none;html=1;rounded=1;fontSize=13;strokeWidth=1;exitX=1;exitY=0.5;exitDx=0;exitDy=0;entryX=0;entryY=0.5;entryDx=0;entryDy=0;" edge="1" parent="1" source="P2BTeSbuN0RBZDsDzlA9-78" target="P2BTeSbuN0RBZDsDzlA9-80">
          <mxGeometry width="50" height="50" relative="1" as="geometry">
            <mxPoint x="570" y="160" as="sourcePoint" />
            <mxPoint x="620" y="110" as="targetPoint" />
          </mxGeometry>
        </mxCell>
        <mxCell id="P2BTeSbuN0RBZDsDzlA9-83" style="edgeStyle=orthogonalEdgeStyle;rounded=1;orthogonalLoop=1;jettySize=auto;html=1;entryX=1;entryY=0.5;entryDx=0;entryDy=0;fontSize=13;strokeWidth=2;" edge="1" parent="1" source="P2BTeSbuN0RBZDsDzlA9-82" target="P2BTeSbuN0RBZDsDzlA9-80">
          <mxGeometry relative="1" as="geometry" />
        </mxCell>
        <mxCell id="P2BTeSbuN0RBZDsDzlA9-82" value="Tier Info" style="rounded=0;whiteSpace=wrap;html=1;fontSize=13;strokeWidth=2;" vertex="1" parent="1">
          <mxGeometry x="950" y="105" width="110" height="50" as="geometry" />
        </mxCell>
        <mxCell id="P2BTeSbuN0RBZDsDzlA9-84" value="Tier No" style="ellipse;whiteSpace=wrap;html=1;fontSize=13;strokeWidth=1;" vertex="1" parent="1">
          <mxGeometry x="890" y="20" width="80" height="40" as="geometry" />
        </mxCell>
        <mxCell id="P2BTeSbuN0RBZDsDzlA9-85" value="Treshold" style="ellipse;whiteSpace=wrap;html=1;fontSize=13;strokeWidth=1;" vertex="1" parent="1">
          <mxGeometry x="930" y="190" width="80" height="40" as="geometry" />
        </mxCell>
        <mxCell id="P2BTeSbuN0RBZDsDzlA9-86" value="Tier Rank Number" style="ellipse;whiteSpace=wrap;html=1;fontSize=13;strokeWidth=1;" vertex="1" parent="1">
          <mxGeometry x="990" y="20" width="80" height="40" as="geometry" />
        </mxCell>
        <mxCell id="P2BTeSbuN0RBZDsDzlA9-87" value="Name" style="ellipse;whiteSpace=wrap;html=1;fontSize=13;strokeWidth=1;" vertex="1" parent="1">
          <mxGeometry x="1080" y="50" width="80" height="40" as="geometry" />
        </mxCell>
        <mxCell id="P2BTeSbuN0RBZDsDzlA9-88" value="" style="endArrow=none;html=1;rounded=1;fontSize=13;strokeWidth=1;entryX=0.5;entryY=1;entryDx=0;entryDy=0;exitX=0.25;exitY=0;exitDx=0;exitDy=0;" edge="1" parent="1" source="P2BTeSbuN0RBZDsDzlA9-82" target="P2BTeSbuN0RBZDsDzlA9-84">
          <mxGeometry width="50" height="50" relative="1" as="geometry">
            <mxPoint x="1010" y="150" as="sourcePoint" />
            <mxPoint x="1060" y="100" as="targetPoint" />
          </mxGeometry>
        </mxCell>
        <mxCell id="P2BTeSbuN0RBZDsDzlA9-89" value="" style="endArrow=none;html=1;rounded=1;fontSize=13;strokeWidth=1;entryX=0.5;entryY=1;entryDx=0;entryDy=0;exitX=0.5;exitY=0;exitDx=0;exitDy=0;" edge="1" parent="1" source="P2BTeSbuN0RBZDsDzlA9-82" target="P2BTeSbuN0RBZDsDzlA9-86">
          <mxGeometry width="50" height="50" relative="1" as="geometry">
            <mxPoint x="1010" y="140" as="sourcePoint" />
            <mxPoint x="1060" y="90" as="targetPoint" />
          </mxGeometry>
        </mxCell>
        <mxCell id="P2BTeSbuN0RBZDsDzlA9-90" value="" style="endArrow=none;html=1;rounded=1;fontSize=13;strokeWidth=1;entryX=0.5;entryY=1;entryDx=0;entryDy=0;exitX=1;exitY=0.5;exitDx=0;exitDy=0;" edge="1" parent="1" source="P2BTeSbuN0RBZDsDzlA9-82" target="P2BTeSbuN0RBZDsDzlA9-87">
          <mxGeometry width="50" height="50" relative="1" as="geometry">
            <mxPoint x="1010" y="140" as="sourcePoint" />
            <mxPoint x="1060" y="90" as="targetPoint" />
          </mxGeometry>
        </mxCell>
        <mxCell id="P2BTeSbuN0RBZDsDzlA9-91" value="" style="endArrow=none;html=1;rounded=1;fontSize=13;strokeWidth=1;exitX=0.5;exitY=0;exitDx=0;exitDy=0;entryX=0.25;entryY=1;entryDx=0;entryDy=0;" edge="1" parent="1" source="P2BTeSbuN0RBZDsDzlA9-85" target="P2BTeSbuN0RBZDsDzlA9-82">
          <mxGeometry width="50" height="50" relative="1" as="geometry">
            <mxPoint x="1010" y="140" as="sourcePoint" />
            <mxPoint x="1060" y="90" as="targetPoint" />
          </mxGeometry>
        </mxCell>
        <mxCell id="P2BTeSbuN0RBZDsDzlA9-92" value="" style="endArrow=none;html=1;rounded=1;fontSize=13;strokeWidth=1;exitX=0.5;exitY=1;exitDx=0;exitDy=0;entryX=0.5;entryY=0;entryDx=0;entryDy=0;" edge="1" parent="1" source="P2BTeSbuN0RBZDsDzlA9-82" target="P2BTeSbuN0RBZDsDzlA9-54">
          <mxGeometry width="50" height="50" relative="1" as="geometry">
            <mxPoint x="1010" y="140" as="sourcePoint" />
            <mxPoint x="1060" y="90" as="targetPoint" />
          </mxGeometry>
        </mxCell>
        <mxCell id="P2BTeSbuN0RBZDsDzlA9-93" value="Points" style="ellipse;whiteSpace=wrap;html=1;fontSize=13;strokeWidth=1;" vertex="1" parent="1">
          <mxGeometry x="50" y="130" width="70" height="40" as="geometry" />
        </mxCell>
        <mxCell id="P2BTeSbuN0RBZDsDzlA9-94" value="LP ID" style="ellipse;whiteSpace=wrap;html=1;fontSize=13;strokeWidth=1;" vertex="1" parent="1">
          <mxGeometry x="50" y="65" width="70" height="40" as="geometry" />
        </mxCell>
        <mxCell id="P2BTeSbuN0RBZDsDzlA9-95" value="" style="endArrow=none;html=1;rounded=1;fontSize=13;strokeWidth=1;entryX=1;entryY=1;entryDx=0;entryDy=0;exitX=0;exitY=0.25;exitDx=0;exitDy=0;" edge="1" parent="1" source="P2BTeSbuN0RBZDsDzlA9-2" target="P2BTeSbuN0RBZDsDzlA9-94">
          <mxGeometry width="50" height="50" relative="1" as="geometry">
            <mxPoint x="110" y="160" as="sourcePoint" />
            <mxPoint x="80" y="110" as="targetPoint" />
          </mxGeometry>
        </mxCell>
        <mxCell id="P2BTeSbuN0RBZDsDzlA9-96" value="" style="endArrow=none;html=1;rounded=1;fontSize=13;strokeWidth=1;entryX=0;entryY=0.75;entryDx=0;entryDy=0;exitX=1;exitY=0.5;exitDx=0;exitDy=0;" edge="1" parent="1" source="P2BTeSbuN0RBZDsDzlA9-93" target="P2BTeSbuN0RBZDsDzlA9-2">
          <mxGeometry width="50" height="50" relative="1" as="geometry">
            <mxPoint x="30" y="160" as="sourcePoint" />
            <mxPoint x="80" y="110" as="targetPoint" />
          </mxGeometry>
        </mxCell>
        <mxCell id="P2BTeSbuN0RBZDsDzlA9-98" value="" style="endArrow=none;dashed=1;html=1;dashPattern=1 3;strokeWidth=2;rounded=1;fontSize=13;" edge="1" parent="1">
          <mxGeometry width="50" height="50" relative="1" as="geometry">
            <mxPoint x="1200" y="600" as="sourcePoint" />
            <mxPoint x="1200" as="targetPoint" />
          </mxGeometry>
        </mxCell>
        <mxCell id="P2BTeSbuN0RBZDsDzlA9-99" value="" style="endArrow=none;dashed=1;html=1;dashPattern=1 3;strokeWidth=2;rounded=1;fontSize=13;" edge="1" parent="1">
          <mxGeometry width="50" height="50" relative="1" as="geometry">
            <mxPoint y="600" as="sourcePoint" />
            <mxPoint as="targetPoint" />
          </mxGeometry>
        </mxCell>
        <mxCell id="P2BTeSbuN0RBZDsDzlA9-100" value="" style="endArrow=none;dashed=1;html=1;dashPattern=1 3;strokeWidth=2;rounded=1;fontSize=13;" edge="1" parent="1">
          <mxGeometry width="50" height="50" relative="1" as="geometry">
            <mxPoint y="600" as="sourcePoint" />
            <mxPoint x="1200" y="600" as="targetPoint" />
          </mxGeometry>
        </mxCell>
        <mxCell id="P2BTeSbuN0RBZDsDzlA9-101" value="" style="endArrow=none;dashed=1;html=1;dashPattern=1 3;strokeWidth=2;rounded=1;fontSize=13;" edge="1" parent="1">
          <mxGeometry width="50" height="50" relative="1" as="geometry">
            <mxPoint as="sourcePoint" />
            <mxPoint x="1200" as="targetPoint" />
          </mxGeometry>
        </mxCell>
        <mxCell id="P2BTeSbuN0RBZDsDzlA9-105" style="edgeStyle=orthogonalEdgeStyle;rounded=1;orthogonalLoop=1;jettySize=auto;html=1;entryX=0.5;entryY=0;entryDx=0;entryDy=0;fontSize=13;strokeWidth=1;" edge="1" parent="1" source="P2BTeSbuN0RBZDsDzlA9-102" target="P2BTeSbuN0RBZDsDzlA9-103">
          <mxGeometry relative="1" as="geometry" />
        </mxCell>
        <mxCell id="P2BTeSbuN0RBZDsDzlA9-102" value="Brand" style="rounded=0;whiteSpace=wrap;html=1;fontSize=13;strokeWidth=1;" vertex="1" parent="1">
          <mxGeometry x="65" y="-250" width="110" height="50" as="geometry" />
        </mxCell>
        <mxCell id="P2BTeSbuN0RBZDsDzlA9-103" value="Manages" style="rhombus;whiteSpace=wrap;html=1;fontSize=13;strokeWidth=1;" vertex="1" parent="1">
          <mxGeometry x="62.5" y="-140" width="115" height="50" as="geometry" />
        </mxCell>
        <mxCell id="P2BTeSbuN0RBZDsDzlA9-104" value="" style="endArrow=classic;html=1;rounded=1;fontSize=13;strokeWidth=2;entryX=0.5;entryY=1;entryDx=0;entryDy=0;" edge="1" parent="1" target="P2BTeSbuN0RBZDsDzlA9-103">
          <mxGeometry width="50" height="50" relative="1" as="geometry">
            <mxPoint x="180" as="sourcePoint" />
            <mxPoint x="280" y="-400" as="targetPoint" />
          </mxGeometry>
        </mxCell>
        <mxCell id="P2BTeSbuN0RBZDsDzlA9-106" value="Join Date" style="ellipse;whiteSpace=wrap;html=1;fontSize=13;strokeWidth=1;" vertex="1" parent="1">
          <mxGeometry x="177.5" y="-320" width="70" height="40" as="geometry" />
        </mxCell>
        <mxCell id="P2BTeSbuN0RBZDsDzlA9-107" value="Brand ID" style="ellipse;whiteSpace=wrap;html=1;fontSize=13;strokeWidth=1;" vertex="1" parent="1">
          <mxGeometry x="80" y="-320" width="70" height="40" as="geometry" />
        </mxCell>
        <mxCell id="P2BTeSbuN0RBZDsDzlA9-108" value="Name" style="ellipse;whiteSpace=wrap;html=1;fontSize=13;strokeWidth=1;" vertex="1" parent="1">
          <mxGeometry x="-7.5" y="-320" width="70" height="40" as="geometry" />
        </mxCell>
        <mxCell id="P2BTeSbuN0RBZDsDzlA9-109" value="" style="endArrow=none;html=1;rounded=1;fontSize=13;strokeWidth=1;entryX=0.5;entryY=1;entryDx=0;entryDy=0;exitX=0.25;exitY=0;exitDx=0;exitDy=0;" edge="1" parent="1" source="P2BTeSbuN0RBZDsDzlA9-102" target="P2BTeSbuN0RBZDsDzlA9-108">
          <mxGeometry width="50" height="50" relative="1" as="geometry">
            <mxPoint x="260" y="-50" as="sourcePoint" />
            <mxPoint x="310" y="-100" as="targetPoint" />
          </mxGeometry>
        </mxCell>
        <mxCell id="P2BTeSbuN0RBZDsDzlA9-110" value="" style="endArrow=none;html=1;rounded=1;fontSize=13;strokeWidth=1;entryX=0.5;entryY=1;entryDx=0;entryDy=0;exitX=0.5;exitY=0;exitDx=0;exitDy=0;" edge="1" parent="1" source="P2BTeSbuN0RBZDsDzlA9-102" target="P2BTeSbuN0RBZDsDzlA9-107">
          <mxGeometry width="50" height="50" relative="1" as="geometry">
            <mxPoint x="260" y="-50" as="sourcePoint" />
            <mxPoint x="310" y="-100" as="targetPoint" />
          </mxGeometry>
        </mxCell>
        <mxCell id="P2BTeSbuN0RBZDsDzlA9-111" value="" style="endArrow=none;html=1;rounded=1;fontSize=13;strokeWidth=1;entryX=0.5;entryY=1;entryDx=0;entryDy=0;exitX=0.75;exitY=0;exitDx=0;exitDy=0;" edge="1" parent="1" source="P2BTeSbuN0RBZDsDzlA9-102" target="P2BTeSbuN0RBZDsDzlA9-106">
          <mxGeometry width="50" height="50" relative="1" as="geometry">
            <mxPoint x="260" y="-50" as="sourcePoint" />
            <mxPoint x="310" y="-100" as="targetPoint" />
          </mxGeometry>
        </mxCell>
        <mxCell id="P2BTeSbuN0RBZDsDzlA9-112" value="Located At" style="rhombus;whiteSpace=wrap;html=1;fontSize=13;strokeWidth=1;" vertex="1" parent="1">
          <mxGeometry x="-140" y="-252.5" width="100" height="55" as="geometry" />
        </mxCell>
        <mxCell id="P2BTeSbuN0RBZDsDzlA9-113" value="" style="endArrow=none;html=1;rounded=1;fontSize=13;strokeWidth=1;exitX=1;exitY=0.5;exitDx=0;exitDy=0;entryX=0;entryY=0.5;entryDx=0;entryDy=0;" edge="1" parent="1" source="P2BTeSbuN0RBZDsDzlA9-112" target="P2BTeSbuN0RBZDsDzlA9-102">
          <mxGeometry width="50" height="50" relative="1" as="geometry">
            <mxPoint x="90" y="-50" as="sourcePoint" />
            <mxPoint x="140" y="-100" as="targetPoint" />
          </mxGeometry>
        </mxCell>
        <mxCell id="P2BTeSbuN0RBZDsDzlA9-115" style="edgeStyle=orthogonalEdgeStyle;rounded=1;orthogonalLoop=1;jettySize=auto;html=1;entryX=0;entryY=0.5;entryDx=0;entryDy=0;fontSize=13;strokeWidth=1;" edge="1" parent="1" source="P2BTeSbuN0RBZDsDzlA9-114" target="P2BTeSbuN0RBZDsDzlA9-112">
          <mxGeometry relative="1" as="geometry" />
        </mxCell>
        <mxCell id="P2BTeSbuN0RBZDsDzlA9-114" value="Brand Adress" style="rounded=0;whiteSpace=wrap;html=1;fontSize=13;strokeWidth=1;" vertex="1" parent="1">
          <mxGeometry x="-310" y="-250" width="100" height="50" as="geometry" />
        </mxCell>
        <mxCell id="P2BTeSbuN0RBZDsDzlA9-116" value="Pin Code" style="ellipse;whiteSpace=wrap;html=1;fontSize=13;strokeWidth=1;" vertex="1" parent="1">
          <mxGeometry x="-295" y="-140" width="70" height="40" as="geometry" />
        </mxCell>
        <mxCell id="P2BTeSbuN0RBZDsDzlA9-117" value="Building Number" style="ellipse;whiteSpace=wrap;html=1;fontSize=13;strokeWidth=1;" vertex="1" parent="1">
          <mxGeometry x="-390" y="-160" width="70" height="40" as="geometry" />
        </mxCell>
        <mxCell id="P2BTeSbuN0RBZDsDzlA9-118" value="State" style="ellipse;whiteSpace=wrap;html=1;fontSize=13;strokeWidth=1;" vertex="1" parent="1">
          <mxGeometry x="-450" y="-237.5" width="70" height="40" as="geometry" />
        </mxCell>
        <mxCell id="P2BTeSbuN0RBZDsDzlA9-119" value="City" style="ellipse;whiteSpace=wrap;html=1;fontSize=13;strokeWidth=1;" vertex="1" parent="1">
          <mxGeometry x="-295" y="-340" width="70" height="40" as="geometry" />
        </mxCell>
        <mxCell id="P2BTeSbuN0RBZDsDzlA9-120" value="Street Name" style="ellipse;whiteSpace=wrap;html=1;fontSize=13;strokeWidth=1;" vertex="1" parent="1">
          <mxGeometry x="-380" y="-310" width="70" height="40" as="geometry" />
        </mxCell>
        <mxCell id="P2BTeSbuN0RBZDsDzlA9-121" value="" style="endArrow=none;html=1;rounded=1;fontSize=13;strokeWidth=1;" edge="1" parent="1" source="P2BTeSbuN0RBZDsDzlA9-114" target="P2BTeSbuN0RBZDsDzlA9-120">
          <mxGeometry width="50" height="50" relative="1" as="geometry">
            <mxPoint x="-60" y="-60" as="sourcePoint" />
            <mxPoint x="-10" y="-110" as="targetPoint" />
          </mxGeometry>
        </mxCell>
        <mxCell id="P2BTeSbuN0RBZDsDzlA9-122" value="" style="endArrow=none;html=1;rounded=1;fontSize=13;strokeWidth=1;entryX=0.5;entryY=1;entryDx=0;entryDy=0;exitX=0.5;exitY=0;exitDx=0;exitDy=0;" edge="1" parent="1" source="P2BTeSbuN0RBZDsDzlA9-114" target="P2BTeSbuN0RBZDsDzlA9-119">
          <mxGeometry width="50" height="50" relative="1" as="geometry">
            <mxPoint x="-60" y="-140" as="sourcePoint" />
            <mxPoint x="-10" y="-190" as="targetPoint" />
          </mxGeometry>
        </mxCell>
        <mxCell id="P2BTeSbuN0RBZDsDzlA9-123" value="" style="endArrow=none;html=1;rounded=1;fontSize=13;strokeWidth=1;exitX=1;exitY=0.5;exitDx=0;exitDy=0;entryX=0;entryY=0.5;entryDx=0;entryDy=0;" edge="1" parent="1" source="P2BTeSbuN0RBZDsDzlA9-118" target="P2BTeSbuN0RBZDsDzlA9-114">
          <mxGeometry width="50" height="50" relative="1" as="geometry">
            <mxPoint x="-60" y="-140" as="sourcePoint" />
            <mxPoint x="-10" y="-190" as="targetPoint" />
          </mxGeometry>
        </mxCell>
        <mxCell id="P2BTeSbuN0RBZDsDzlA9-124" value="" style="endArrow=none;html=1;rounded=1;fontSize=13;strokeWidth=1;exitX=0.5;exitY=0;exitDx=0;exitDy=0;entryX=0.25;entryY=1;entryDx=0;entryDy=0;" edge="1" parent="1" source="P2BTeSbuN0RBZDsDzlA9-117" target="P2BTeSbuN0RBZDsDzlA9-114">
          <mxGeometry width="50" height="50" relative="1" as="geometry">
            <mxPoint x="-60" y="-140" as="sourcePoint" />
            <mxPoint x="-10" y="-190" as="targetPoint" />
          </mxGeometry>
        </mxCell>
        <mxCell id="P2BTeSbuN0RBZDsDzlA9-125" value="" style="endArrow=none;html=1;rounded=1;fontSize=13;strokeWidth=1;exitX=0.5;exitY=0;exitDx=0;exitDy=0;entryX=0.5;entryY=1;entryDx=0;entryDy=0;" edge="1" parent="1" source="P2BTeSbuN0RBZDsDzlA9-116" target="P2BTeSbuN0RBZDsDzlA9-114">
          <mxGeometry width="50" height="50" relative="1" as="geometry">
            <mxPoint x="-60" y="-140" as="sourcePoint" />
            <mxPoint x="-10" y="-190" as="targetPoint" />
          </mxGeometry>
        </mxCell>
        <mxCell id="P2BTeSbuN0RBZDsDzlA9-126" value="Enrolls In" style="rhombus;whiteSpace=wrap;html=1;fontSize=13;strokeWidth=1;" vertex="1" parent="1">
          <mxGeometry x="620" y="-140" width="120" height="50" as="geometry" />
        </mxCell>
        <mxCell id="P2BTeSbuN0RBZDsDzlA9-127" value="" style="endArrow=none;html=1;rounded=1;fontSize=13;strokeWidth=1;entryX=0.5;entryY=1;entryDx=0;entryDy=0;" edge="1" parent="1" target="P2BTeSbuN0RBZDsDzlA9-126">
          <mxGeometry width="50" height="50" relative="1" as="geometry">
            <mxPoint x="680" as="sourcePoint" />
            <mxPoint x="670" y="-300" as="targetPoint" />
          </mxGeometry>
        </mxCell>
        <mxCell id="P2BTeSbuN0RBZDsDzlA9-141" style="edgeStyle=orthogonalEdgeStyle;rounded=1;orthogonalLoop=1;jettySize=auto;html=1;entryX=0.5;entryY=1;entryDx=0;entryDy=0;fontSize=13;strokeWidth=2;" edge="1" parent="1" source="P2BTeSbuN0RBZDsDzlA9-128" target="P2BTeSbuN0RBZDsDzlA9-140">
          <mxGeometry relative="1" as="geometry" />
        </mxCell>
        <mxCell id="P2BTeSbuN0RBZDsDzlA9-128" value="Customers" style="rounded=0;whiteSpace=wrap;html=1;fontSize=13;strokeWidth=1;" vertex="1" parent="1">
          <mxGeometry x="620" y="-290" width="120" height="60" as="geometry" />
        </mxCell>
        <mxCell id="P2BTeSbuN0RBZDsDzlA9-129" value="" style="endArrow=none;html=1;rounded=1;fontSize=13;strokeWidth=1;entryX=0.5;entryY=1;entryDx=0;entryDy=0;" edge="1" parent="1" source="P2BTeSbuN0RBZDsDzlA9-126" target="P2BTeSbuN0RBZDsDzlA9-128">
          <mxGeometry width="50" height="50" relative="1" as="geometry">
            <mxPoint x="620" y="-250" as="sourcePoint" />
            <mxPoint x="670" y="-300" as="targetPoint" />
          </mxGeometry>
        </mxCell>
        <mxCell id="P2BTeSbuN0RBZDsDzlA9-130" value="Password" style="ellipse;whiteSpace=wrap;html=1;fontSize=13;strokeWidth=1;" vertex="1" parent="1">
          <mxGeometry x="710" y="-360" width="80" height="40" as="geometry" />
        </mxCell>
        <mxCell id="P2BTeSbuN0RBZDsDzlA9-131" value="LastNmae" style="ellipse;whiteSpace=wrap;html=1;fontSize=13;strokeWidth=1;" vertex="1" parent="1">
          <mxGeometry x="640" y="-400" width="80" height="40" as="geometry" />
        </mxCell>
        <mxCell id="P2BTeSbuN0RBZDsDzlA9-132" value="FirstName" style="ellipse;whiteSpace=wrap;html=1;fontSize=13;strokeWidth=1;" vertex="1" parent="1">
          <mxGeometry x="570" y="-360" width="80" height="40" as="geometry" />
        </mxCell>
        <mxCell id="P2BTeSbuN0RBZDsDzlA9-133" value="Phone Number" style="ellipse;whiteSpace=wrap;html=1;fontSize=13;strokeWidth=1;" vertex="1" parent="1">
          <mxGeometry x="740" y="-197.5" width="80" height="40" as="geometry" />
        </mxCell>
        <mxCell id="P2BTeSbuN0RBZDsDzlA9-134" value="Customer ID" style="ellipse;whiteSpace=wrap;html=1;fontSize=13;strokeWidth=1;" vertex="1" parent="1">
          <mxGeometry x="540" y="-197.5" width="80" height="40" as="geometry" />
        </mxCell>
        <mxCell id="P2BTeSbuN0RBZDsDzlA9-135" value="" style="endArrow=none;html=1;rounded=1;fontSize=13;strokeWidth=1;exitX=0.5;exitY=0;exitDx=0;exitDy=0;entryX=0.25;entryY=1;entryDx=0;entryDy=0;" edge="1" parent="1" source="P2BTeSbuN0RBZDsDzlA9-134" target="P2BTeSbuN0RBZDsDzlA9-128">
          <mxGeometry width="50" height="50" relative="1" as="geometry">
            <mxPoint x="620" y="-250" as="sourcePoint" />
            <mxPoint x="670" y="-300" as="targetPoint" />
          </mxGeometry>
        </mxCell>
        <mxCell id="P2BTeSbuN0RBZDsDzlA9-136" value="" style="endArrow=none;html=1;rounded=1;fontSize=13;strokeWidth=1;exitX=0.75;exitY=1;exitDx=0;exitDy=0;entryX=0.5;entryY=0;entryDx=0;entryDy=0;" edge="1" parent="1" source="P2BTeSbuN0RBZDsDzlA9-128" target="P2BTeSbuN0RBZDsDzlA9-133">
          <mxGeometry width="50" height="50" relative="1" as="geometry">
            <mxPoint x="620" y="-260" as="sourcePoint" />
            <mxPoint x="670" y="-310" as="targetPoint" />
          </mxGeometry>
        </mxCell>
        <mxCell id="P2BTeSbuN0RBZDsDzlA9-137" value="" style="endArrow=none;html=1;rounded=1;fontSize=13;strokeWidth=1;entryX=0.5;entryY=1;entryDx=0;entryDy=0;exitX=0.25;exitY=0;exitDx=0;exitDy=0;" edge="1" parent="1" source="P2BTeSbuN0RBZDsDzlA9-128" target="P2BTeSbuN0RBZDsDzlA9-132">
          <mxGeometry width="50" height="50" relative="1" as="geometry">
            <mxPoint x="620" y="-260" as="sourcePoint" />
            <mxPoint x="670" y="-310" as="targetPoint" />
          </mxGeometry>
        </mxCell>
        <mxCell id="P2BTeSbuN0RBZDsDzlA9-138" value="" style="endArrow=none;html=1;rounded=1;fontSize=13;strokeWidth=1;entryX=0.5;entryY=1;entryDx=0;entryDy=0;exitX=0.5;exitY=0;exitDx=0;exitDy=0;" edge="1" parent="1" source="P2BTeSbuN0RBZDsDzlA9-128" target="P2BTeSbuN0RBZDsDzlA9-131">
          <mxGeometry width="50" height="50" relative="1" as="geometry">
            <mxPoint x="620" y="-260" as="sourcePoint" />
            <mxPoint x="670" y="-310" as="targetPoint" />
          </mxGeometry>
        </mxCell>
        <mxCell id="P2BTeSbuN0RBZDsDzlA9-139" value="" style="endArrow=none;html=1;rounded=1;fontSize=13;strokeWidth=1;entryX=0.5;entryY=1;entryDx=0;entryDy=0;exitX=0.75;exitY=0;exitDx=0;exitDy=0;" edge="1" parent="1" source="P2BTeSbuN0RBZDsDzlA9-128" target="P2BTeSbuN0RBZDsDzlA9-130">
          <mxGeometry width="50" height="50" relative="1" as="geometry">
            <mxPoint x="620" y="-260" as="sourcePoint" />
            <mxPoint x="670" y="-310" as="targetPoint" />
          </mxGeometry>
        </mxCell>
        <mxCell id="P2BTeSbuN0RBZDsDzlA9-140" value="Located At" style="rhombus;whiteSpace=wrap;html=1;fontSize=13;strokeWidth=1;" vertex="1" parent="1">
          <mxGeometry x="370" y="-430" width="90" height="50" as="geometry" />
        </mxCell>
        <mxCell id="P2BTeSbuN0RBZDsDzlA9-142" value="Customer Adress" style="rounded=0;whiteSpace=wrap;html=1;fontSize=13;strokeWidth=1;" vertex="1" parent="1">
          <mxGeometry x="357.5" y="-560" width="115" height="50" as="geometry" />
        </mxCell>
        <mxCell id="P2BTeSbuN0RBZDsDzlA9-143" value="" style="endArrow=none;html=1;rounded=1;fontSize=13;strokeWidth=1;entryX=0.5;entryY=1;entryDx=0;entryDy=0;exitX=0.5;exitY=0;exitDx=0;exitDy=0;" edge="1" parent="1" source="P2BTeSbuN0RBZDsDzlA9-140" target="P2BTeSbuN0RBZDsDzlA9-142">
          <mxGeometry width="50" height="50" relative="1" as="geometry">
            <mxPoint x="620" y="-260" as="sourcePoint" />
            <mxPoint x="670" y="-310" as="targetPoint" />
          </mxGeometry>
        </mxCell>
        <mxCell id="P2BTeSbuN0RBZDsDzlA9-144" value="City" style="ellipse;whiteSpace=wrap;html=1;fontSize=13;strokeWidth=1;" vertex="1" parent="1">
          <mxGeometry x="470" y="-640" width="70" height="40" as="geometry" />
        </mxCell>
        <mxCell id="P2BTeSbuN0RBZDsDzlA9-145" value="Apartment Number" style="ellipse;whiteSpace=wrap;html=1;fontSize=13;strokeWidth=1;" vertex="1" parent="1">
          <mxGeometry x="380" y="-680" width="70" height="40" as="geometry" />
        </mxCell>
        <mxCell id="P2BTeSbuN0RBZDsDzlA9-146" value="PinCode" style="ellipse;whiteSpace=wrap;html=1;fontSize=13;strokeWidth=1;" vertex="1" parent="1">
          <mxGeometry x="300" y="-640" width="70" height="40" as="geometry" />
        </mxCell>
        <mxCell id="P2BTeSbuN0RBZDsDzlA9-147" value="" style="endArrow=none;html=1;rounded=1;fontSize=13;strokeWidth=1;exitX=0.5;exitY=1;exitDx=0;exitDy=0;entryX=0.25;entryY=0;entryDx=0;entryDy=0;" edge="1" parent="1" source="P2BTeSbuN0RBZDsDzlA9-146" target="P2BTeSbuN0RBZDsDzlA9-142">
          <mxGeometry width="50" height="50" relative="1" as="geometry">
            <mxPoint x="610" y="-610" as="sourcePoint" />
            <mxPoint x="660" y="-660" as="targetPoint" />
          </mxGeometry>
        </mxCell>
        <mxCell id="P2BTeSbuN0RBZDsDzlA9-148" value="" style="endArrow=none;html=1;rounded=1;fontSize=13;strokeWidth=1;entryX=0.5;entryY=1;entryDx=0;entryDy=0;exitX=0.75;exitY=0;exitDx=0;exitDy=0;" edge="1" parent="1" source="P2BTeSbuN0RBZDsDzlA9-142" target="P2BTeSbuN0RBZDsDzlA9-144">
          <mxGeometry width="50" height="50" relative="1" as="geometry">
            <mxPoint x="610" y="-610" as="sourcePoint" />
            <mxPoint x="660" y="-660" as="targetPoint" />
          </mxGeometry>
        </mxCell>
        <mxCell id="P2BTeSbuN0RBZDsDzlA9-149" value="" style="endArrow=none;html=1;rounded=1;fontSize=13;strokeWidth=1;entryX=0.5;entryY=1;entryDx=0;entryDy=0;exitX=0.5;exitY=0;exitDx=0;exitDy=0;" edge="1" parent="1" source="P2BTeSbuN0RBZDsDzlA9-142" target="P2BTeSbuN0RBZDsDzlA9-145">
          <mxGeometry width="50" height="50" relative="1" as="geometry">
            <mxPoint x="610" y="-610" as="sourcePoint" />
            <mxPoint x="660" y="-660" as="targetPoint" />
          </mxGeometry>
        </mxCell>
        <mxCell id="P2BTeSbuN0RBZDsDzlA9-150" value="" style="endArrow=classic;html=1;rounded=1;fontSize=13;strokeWidth=2;exitX=1;exitY=0.5;exitDx=0;exitDy=0;" edge="1" parent="1" source="P2BTeSbuN0RBZDsDzlA9-128" target="P2BTeSbuN0RBZDsDzlA9-151">
          <mxGeometry width="50" height="50" relative="1" as="geometry">
            <mxPoint x="900" y="-320" as="sourcePoint" />
            <mxPoint x="920" y="-260" as="targetPoint" />
          </mxGeometry>
        </mxCell>
        <mxCell id="P2BTeSbuN0RBZDsDzlA9-151" value="Owns" style="rhombus;whiteSpace=wrap;html=1;fontSize=13;strokeWidth=2;" vertex="1" parent="1">
          <mxGeometry x="880" y="-292.5" width="100" height="65" as="geometry" />
        </mxCell>
        <mxCell id="P2BTeSbuN0RBZDsDzlA9-153" style="edgeStyle=orthogonalEdgeStyle;rounded=1;orthogonalLoop=1;jettySize=auto;html=1;fontSize=13;strokeWidth=2;entryX=1;entryY=0.5;entryDx=0;entryDy=0;" edge="1" parent="1" source="P2BTeSbuN0RBZDsDzlA9-152" target="P2BTeSbuN0RBZDsDzlA9-151">
          <mxGeometry relative="1" as="geometry">
            <mxPoint x="990" y="-260" as="targetPoint" />
          </mxGeometry>
        </mxCell>
        <mxCell id="P2BTeSbuN0RBZDsDzlA9-152" value="Wallet" style="rounded=0;whiteSpace=wrap;html=1;fontSize=13;strokeWidth=1;" vertex="1" parent="1">
          <mxGeometry x="1090" y="-290" width="120" height="60" as="geometry" />
        </mxCell>
        <mxCell id="P2BTeSbuN0RBZDsDzlA9-154" value="Current Points" style="ellipse;whiteSpace=wrap;html=1;fontSize=13;strokeWidth=1;" vertex="1" parent="1">
          <mxGeometry x="1575" y="-170" width="80" height="40" as="geometry" />
        </mxCell>
        <mxCell id="P2BTeSbuN0RBZDsDzlA9-155" value="Loyalty Program Code" style="ellipse;whiteSpace=wrap;html=1;fontSize=13;strokeWidth=1;" vertex="1" parent="1">
          <mxGeometry x="1150" y="-405" width="80" height="55" as="geometry" />
        </mxCell>
        <mxCell id="P2BTeSbuN0RBZDsDzlA9-156" value="Loyalty Program Type" style="ellipse;whiteSpace=wrap;html=1;fontSize=13;strokeWidth=1;" vertex="1" parent="1">
          <mxGeometry x="1060" y="-400" width="80" height="50" as="geometry" />
        </mxCell>
        <mxCell id="P2BTeSbuN0RBZDsDzlA9-157" value="Total Points" style="ellipse;whiteSpace=wrap;html=1;fontSize=13;strokeWidth=1;" vertex="1" parent="1">
          <mxGeometry x="1140" y="-160" width="80" height="40" as="geometry" />
        </mxCell>
        <mxCell id="P2BTeSbuN0RBZDsDzlA9-158" value="Tier No" style="ellipse;whiteSpace=wrap;html=1;fontSize=13;strokeWidth=1;" vertex="1" parent="1">
          <mxGeometry x="1050" y="-160" width="70" height="40" as="geometry" />
        </mxCell>
        <mxCell id="P2BTeSbuN0RBZDsDzlA9-159" value="Wallet ID" style="ellipse;whiteSpace=wrap;html=1;fontSize=13;strokeWidth=1;" vertex="1" parent="1">
          <mxGeometry x="990" y="-190" width="60" height="40" as="geometry" />
        </mxCell>
        <mxCell id="P2BTeSbuN0RBZDsDzlA9-160" value="" style="endArrow=none;html=1;rounded=1;fontSize=13;strokeWidth=1;exitX=0.5;exitY=0;exitDx=0;exitDy=0;entryX=0.25;entryY=1;entryDx=0;entryDy=0;" edge="1" parent="1" source="P2BTeSbuN0RBZDsDzlA9-159" target="P2BTeSbuN0RBZDsDzlA9-152">
          <mxGeometry width="50" height="50" relative="1" as="geometry">
            <mxPoint x="1310" y="-320" as="sourcePoint" />
            <mxPoint x="1360" y="-370" as="targetPoint" />
          </mxGeometry>
        </mxCell>
        <mxCell id="P2BTeSbuN0RBZDsDzlA9-161" value="" style="endArrow=none;html=1;rounded=1;fontSize=13;strokeWidth=1;exitX=0.5;exitY=1;exitDx=0;exitDy=0;entryX=0.5;entryY=0;entryDx=0;entryDy=0;" edge="1" parent="1" source="P2BTeSbuN0RBZDsDzlA9-152" target="P2BTeSbuN0RBZDsDzlA9-158">
          <mxGeometry width="50" height="50" relative="1" as="geometry">
            <mxPoint x="1140" y="-240" as="sourcePoint" />
            <mxPoint x="1115" y="-140" as="targetPoint" />
          </mxGeometry>
        </mxCell>
        <mxCell id="P2BTeSbuN0RBZDsDzlA9-162" value="" style="endArrow=none;html=1;rounded=1;fontSize=13;strokeWidth=1;entryX=0.75;entryY=1;entryDx=0;entryDy=0;exitX=0.5;exitY=0;exitDx=0;exitDy=0;" edge="1" parent="1" source="P2BTeSbuN0RBZDsDzlA9-157" target="P2BTeSbuN0RBZDsDzlA9-152">
          <mxGeometry width="50" height="50" relative="1" as="geometry">
            <mxPoint x="1250" y="-370" as="sourcePoint" />
            <mxPoint x="1290" y="-190" as="targetPoint" />
            <Array as="points" />
          </mxGeometry>
        </mxCell>
        <mxCell id="P2BTeSbuN0RBZDsDzlA9-164" value="" style="endArrow=none;html=1;rounded=1;fontSize=13;strokeWidth=1;exitX=0.75;exitY=1;exitDx=0;exitDy=0;entryX=0.5;entryY=0;entryDx=0;entryDy=0;" edge="1" parent="1" source="P2BTeSbuN0RBZDsDzlA9-169" target="P2BTeSbuN0RBZDsDzlA9-154">
          <mxGeometry width="50" height="50" relative="1" as="geometry">
            <mxPoint x="1310" y="-320" as="sourcePoint" />
            <mxPoint x="1360" y="-370" as="targetPoint" />
          </mxGeometry>
        </mxCell>
        <mxCell id="P2BTeSbuN0RBZDsDzlA9-165" value="" style="endArrow=none;html=1;rounded=1;fontSize=13;strokeWidth=1;exitX=0.5;exitY=1;exitDx=0;exitDy=0;entryX=0.25;entryY=0;entryDx=0;entryDy=0;" edge="1" parent="1" source="P2BTeSbuN0RBZDsDzlA9-156" target="P2BTeSbuN0RBZDsDzlA9-152">
          <mxGeometry width="50" height="50" relative="1" as="geometry">
            <mxPoint x="1240" y="-340" as="sourcePoint" />
            <mxPoint x="1290" y="-390" as="targetPoint" />
          </mxGeometry>
        </mxCell>
        <mxCell id="P2BTeSbuN0RBZDsDzlA9-166" value="" style="endArrow=none;html=1;rounded=1;fontSize=13;strokeWidth=1;entryX=0.5;entryY=1;entryDx=0;entryDy=0;exitX=0.5;exitY=0;exitDx=0;exitDy=0;" edge="1" parent="1" source="P2BTeSbuN0RBZDsDzlA9-152" target="P2BTeSbuN0RBZDsDzlA9-155">
          <mxGeometry width="50" height="50" relative="1" as="geometry">
            <mxPoint x="1240" y="-350" as="sourcePoint" />
            <mxPoint x="1290" y="-400" as="targetPoint" />
          </mxGeometry>
        </mxCell>
        <mxCell id="P2BTeSbuN0RBZDsDzlA9-167" value="Has" style="rhombus;whiteSpace=wrap;html=1;fontSize=13;strokeWidth=1;" vertex="1" parent="1">
          <mxGeometry x="1320" y="-285" width="80" height="50" as="geometry" />
        </mxCell>
        <mxCell id="P2BTeSbuN0RBZDsDzlA9-168" value="" style="endArrow=none;html=1;rounded=1;fontSize=13;strokeWidth=1;exitX=1;exitY=0.5;exitDx=0;exitDy=0;entryX=0;entryY=0.5;entryDx=0;entryDy=0;" edge="1" parent="1" source="P2BTeSbuN0RBZDsDzlA9-152" target="P2BTeSbuN0RBZDsDzlA9-167">
          <mxGeometry width="50" height="50" relative="1" as="geometry">
            <mxPoint x="1530" y="-350" as="sourcePoint" />
            <mxPoint x="1580" y="-400" as="targetPoint" />
          </mxGeometry>
        </mxCell>
        <mxCell id="P2BTeSbuN0RBZDsDzlA9-170" style="edgeStyle=orthogonalEdgeStyle;rounded=1;orthogonalLoop=1;jettySize=auto;html=1;fontSize=13;strokeWidth=1;" edge="1" parent="1" source="P2BTeSbuN0RBZDsDzlA9-169" target="P2BTeSbuN0RBZDsDzlA9-167">
          <mxGeometry relative="1" as="geometry" />
        </mxCell>
        <mxCell id="P2BTeSbuN0RBZDsDzlA9-169" value="Wallet Tier Info" style="rounded=0;whiteSpace=wrap;html=1;fontSize=13;strokeWidth=1;" vertex="1" parent="1">
          <mxGeometry x="1480" y="-288.75" width="110" height="57.5" as="geometry" />
        </mxCell>
        <mxCell id="P2BTeSbuN0RBZDsDzlA9-171" value="Tier No" style="ellipse;whiteSpace=wrap;html=1;fontSize=13;strokeWidth=1;" vertex="1" parent="1">
          <mxGeometry x="1485" y="-170" width="70" height="40" as="geometry" />
        </mxCell>
        <mxCell id="P2BTeSbuN0RBZDsDzlA9-172" value="Wallet ID" style="ellipse;whiteSpace=wrap;html=1;fontSize=13;strokeWidth=1;" vertex="1" parent="1">
          <mxGeometry x="1405" y="-170" width="60" height="40" as="geometry" />
        </mxCell>
        <mxCell id="P2BTeSbuN0RBZDsDzlA9-173" value="" style="endArrow=none;html=1;rounded=1;fontSize=13;strokeWidth=1;exitX=0.5;exitY=0;exitDx=0;exitDy=0;entryX=0.5;entryY=1;entryDx=0;entryDy=0;" edge="1" parent="1" source="P2BTeSbuN0RBZDsDzlA9-171" target="P2BTeSbuN0RBZDsDzlA9-169">
          <mxGeometry width="50" height="50" relative="1" as="geometry">
            <mxPoint x="1420" y="-230" as="sourcePoint" />
            <mxPoint x="1510" y="-200" as="targetPoint" />
          </mxGeometry>
        </mxCell>
        <mxCell id="P2BTeSbuN0RBZDsDzlA9-174" value="" style="endArrow=none;html=1;rounded=1;fontSize=13;strokeWidth=1;entryX=0.25;entryY=1;entryDx=0;entryDy=0;exitX=0.5;exitY=0;exitDx=0;exitDy=0;" edge="1" parent="1" source="P2BTeSbuN0RBZDsDzlA9-172" target="P2BTeSbuN0RBZDsDzlA9-169">
          <mxGeometry width="50" height="50" relative="1" as="geometry">
            <mxPoint x="1420" y="-230" as="sourcePoint" />
            <mxPoint x="1470" y="-280" as="targetPoint" />
          </mxGeometry>
        </mxCell>
      </root>
    </mxGraphModel>
  </diagram>
</mxfile>
